<svg width="50" height="50" viewBox="3 0 35 30" fill="none" xmlns="http://www.w3.org/2000/svg">
<path d="M5 3.33333C5 1.4925 6.4925 0 8.33333 0H31.6667C33.5075 0 35 1.4925 35 3.33333V26.6667C35 28.5075 33.5075 30 31.6667 30H8.33333C6.4925 30 5 28.5075 5 26.6667V3.33333Z" fill="#FF41C8"/>
<path d="M7.5 2.5V27.5H32.5V2.5H20H7.5ZM15.9108 13.0792L17.5058 9.01H20.2483L17.465 14.8858L20.3133 20.8592H17.5383L15.9108 16.7167L14.2917 20.8592H11.5167L14.365 14.8858L11.5733 9.01H14.3158L15.9108 13.0792ZM20.8908 16.1883C20.8908 14.745 21.135 13.6683 21.6233 12.9575C22.1117 12.2467 22.8217 11.8917 23.7558 11.8917C24.4333 11.8917 24.9983 12.185 25.4483 12.7708V8.36H27.7675V20.86H25.6758L25.57 19.965C25.0983 20.6708 24.49 21.0233 23.7467 21.0233C22.825 21.0233 22.1208 20.6708 21.635 19.965C21.1492 19.2592 20.9008 18.2233 20.89 16.8567L20.8908 16.1883ZM23.2025 16.7658C23.2025 17.6342 23.2942 18.2408 23.4792 18.585C23.6642 18.9292 23.9758 19.1017 24.415 19.1017C24.8708 19.1017 25.215 18.8983 25.4483 18.4917V14.4717C25.2208 14.0375 24.8783 13.8208 24.4233 13.8208C24 13.8208 23.6908 13.9917 23.4958 14.3333C23.3008 14.675 23.2025 15.2833 23.2025 16.1567V16.7658Z" fill="#16020B"/>
</svg>
