<svg width="161" height="65" viewBox="11 9 161 60" fill="none" xmlns="http://www.w3.org/2000/svg">
<g filter="url(#filter0_d)">
<path d="M54.5833 11H21.4167C16.7683 11 13 14.7683 13 19.4167V52.5833C13 57.2317 16.7683 61 21.4167 61H54.5833C59.2317 61 63 57.2317 63 52.5833V19.4167C63 14.7683 59.2317 11 54.5833 11Z" fill="#A09CAC"/>
</g>
<path d="M30.9699 49.2541L40.9559 16.9705C40.9975 16.8409 41.0099 16.7037 40.9921 16.5688C40.9743 16.4339 40.9268 16.3045 40.853 16.1897C40.7791 16.0749 40.6807 15.9776 40.5647 15.9045C40.4486 15.8314 40.3178 15.7844 40.1814 15.7668L34.4 15.0007H33.2382C33.0408 14.9929 32.8465 15.0505 32.6861 15.1646C32.5257 15.2786 32.4084 15.4424 32.353 15.63L18.0517 55.7655C18.0005 55.9119 17.987 56.0687 18.0126 56.2216C18.0382 56.3744 18.1019 56.5186 18.1981 56.6409C18.2943 56.7632 18.4198 56.8598 18.5634 56.9219C18.7069 56.9841 18.8638 57.0098 19.0199 56.9967C22.0627 56.6957 29.0889 55.3825 30.9699 49.2541Z" fill="url(#paint0_linear)"/>
<path d="M57.2399 56.9986C57.3588 57.006 57.4778 56.9838 57.5859 56.9339C57.694 56.884 57.7878 56.8081 57.8589 56.7131C57.93 56.618 57.976 56.5068 57.9928 56.3896C58.0097 56.2724 57.9967 56.1528 57.9553 56.0418L43.1252 15.9111C42.9755 15.6113 42.7371 15.3643 42.442 15.203C42.1469 15.0418 41.8093 14.9741 41.4743 15.0089H33C33 15.0089 34.2932 15.0089 34.5683 15.9384L44.831 49.2349C44.831 49.2349 46.9496 56.5339 57.2399 56.9986Z" fill="white"/>
<path d="M87.76 41.8H87.94V42H81.56V41.8H81.74C82.0333 41.8 82.2467 41.7133 82.38 41.54C82.5267 41.3533 82.6 41.18 82.6 41.02C82.6 40.86 82.5667 40.7 82.5 40.54L81.52 38.08H76.84L75.8 40.54C75.7333 40.7133 75.7 40.88 75.7 41.04C75.7 41.1867 75.7733 41.3533 75.92 41.54C76.0667 41.7133 76.2867 41.8 76.58 41.8H76.74V42H72.46V41.8H72.64C72.9467 41.8 73.2533 41.7067 73.56 41.52C73.8667 41.3333 74.12 41.0533 74.32 40.68L78.94 30.22C79.5667 28.9 79.9 28.0267 79.94 27.6H80.12L86.06 40.64C86.26 41.0267 86.5133 41.32 86.82 41.52C87.1267 41.7067 87.44 41.8 87.76 41.8ZM77.18 37.24H81.18L79.24 32.32L77.18 37.24ZM87.9964 42V41.8H88.2364C88.5431 41.8 88.7964 41.7 88.9964 41.5C89.2097 41.3 89.3164 41.0533 89.3164 40.76V31.26C89.3164 30.9667 89.2097 30.72 88.9964 30.52C88.7831 30.3067 88.5297 30.2 88.2364 30.2H87.9964V30H93.5564V30.2H93.3164C93.0097 30.2 92.7497 30.3 92.5364 30.5C92.3231 30.7 92.2164 30.9533 92.2164 31.26V41.2H94.6164C95.4431 41.1867 96.1431 40.9333 96.7164 40.44C97.2897 39.9333 97.7097 39.2267 97.9764 38.32H98.1964L97.4164 42H87.9964ZM98.7777 41.8H99.0177C99.3377 41.8 99.611 41.7 99.8377 41.5C100.064 41.2867 100.178 41.0333 100.178 40.74V31.26C100.178 30.9667 100.064 30.72 99.8377 30.52C99.611 30.3067 99.3377 30.2 99.0177 30.2H98.7777V30H104.458V30.2H104.218C103.911 30.2 103.644 30.3 103.418 30.5C103.191 30.7 103.071 30.9467 103.058 31.24V40.74C103.071 41.0467 103.191 41.3 103.418 41.5C103.644 41.7 103.911 41.8 104.218 41.8H104.458V42H98.7777V41.8ZM122.309 41.8H122.589V42H117.029V41.8H117.309C117.562 41.8 117.742 41.7133 117.849 41.54C117.969 41.3667 118.016 41.1867 117.989 41L117.209 35.28L114.029 40.34C113.549 41.1 113.309 41.78 113.309 42.38H113.129L108.509 35.38L107.829 41C107.802 41.1867 107.849 41.3667 107.969 41.54C108.089 41.7133 108.269 41.8 108.509 41.8H108.789V42H104.989V41.8H105.269C105.602 41.8 105.889 41.7067 106.129 41.52C106.382 41.32 106.529 41.0533 106.569 40.72L108.129 29.74H108.289L113.949 38.2L119.249 29.74H119.429L121.029 40.82C121.096 41.1267 121.249 41.3667 121.489 41.54C121.729 41.7133 122.002 41.8 122.309 41.8ZM123.016 36C123.016 34.08 123.656 32.56 124.936 31.44C126.23 30.3067 127.943 29.74 130.076 29.74C132.223 29.74 133.943 30.3067 135.236 31.44C136.53 32.56 137.176 34.08 137.176 36C137.176 37.92 136.53 39.4467 135.236 40.58C133.943 41.7 132.23 42.26 130.096 42.26C127.963 42.26 126.25 41.7 124.956 40.58C123.663 39.4467 123.016 37.92 123.016 36ZM126.076 36C126.076 37.68 126.436 39.0133 127.156 40C127.89 40.9733 128.863 41.46 130.076 41.46C131.303 41.46 132.276 40.9733 132.996 40C133.73 39.0133 134.096 37.68 134.096 36C134.096 34.32 133.73 32.9933 132.996 32.02C132.276 31.0333 131.303 30.54 130.076 30.54C128.863 30.54 127.89 31.0333 127.156 32.02C126.436 32.9933 126.076 34.32 126.076 36ZM150.715 30.2H150.555C150.275 30.2 149.995 30.2867 149.715 30.46C149.435 30.62 149.208 30.8733 149.035 31.22L144.955 39.82C144.368 41.1 144.061 41.9133 144.035 42.26H143.855L138.535 31.26C138.175 30.5533 137.668 30.2 137.015 30.2H136.875V30H142.735V30.18H142.575C142.321 30.18 142.128 30.2667 141.995 30.44C141.875 30.6 141.815 30.7533 141.815 30.9C141.815 31.0333 141.841 31.1733 141.895 31.32L144.695 37.82L147.555 31.32C147.621 31.16 147.655 31.0133 147.655 30.88C147.655 30.7467 147.588 30.6 147.455 30.44C147.335 30.2667 147.148 30.18 146.895 30.18H146.735V30H150.715V30.2Z" fill="#A09CAC"/>
<path d="M151.029 40.36C151.029 39.4933 151.223 38.7533 151.609 38.14H151.769C151.756 38.2333 151.749 38.32 151.749 38.4C151.749 39.2133 152.036 39.9267 152.609 40.54C153.196 41.1533 154.009 41.46 155.049 41.46C155.796 41.46 156.369 41.2867 156.769 40.94C157.183 40.5933 157.389 40.2067 157.389 39.78C157.389 39.3533 157.269 39.0133 157.029 38.76C156.803 38.4933 156.423 38.1867 155.889 37.84L153.049 36.04C151.849 35.2933 151.249 34.3333 151.249 33.16C151.249 33.04 151.256 32.9133 151.269 32.78C151.349 31.8333 151.716 31.0933 152.369 30.56C153.023 30.0133 153.789 29.74 154.669 29.74C155.563 29.74 156.503 29.8 157.489 29.92H158.569L158.289 32.56H158.109C158.109 31.9333 157.889 31.44 157.449 31.08C157.023 30.72 156.449 30.54 155.729 30.54C155.023 30.54 154.463 30.6933 154.049 31C153.636 31.2933 153.429 31.6867 153.429 32.18C153.429 32.58 153.629 32.9267 154.029 33.22C154.189 33.34 154.423 33.4933 154.729 33.68L157.909 35.64C159.003 36.3067 159.549 37.2267 159.549 38.4C159.549 39.64 159.109 40.5933 158.229 41.26C157.363 41.9267 156.236 42.26 154.849 42.26C153.996 42.26 153.243 42.16 152.589 41.96C151.936 41.76 151.456 41.5067 151.149 41.2C151.069 40.96 151.029 40.68 151.029 40.36Z" fill="white"/>
<defs>
<filter id="filter0_d" x="0" y="0" width="76" height="76" filterUnits="userSpaceOnUse" color-interpolation-filters="sRGB">
<feFlood flood-opacity="0" result="BackgroundImageFix"/>
<feColorMatrix in="SourceAlpha" type="matrix" values="0 0 0 0 0 0 0 0 0 0 0 0 0 0 0 0 0 0 127 0"/>
<feOffset dy="2"/>
<feGaussianBlur stdDeviation="6.5"/>
<feColorMatrix type="matrix" values="0 0 0 0 0.627451 0 0 0 0 0.611765 0 0 0 0 0.67451 0 0 0 1 0"/>
<feBlend mode="normal" in2="BackgroundImageFix" result="effect1_dropShadow"/>
<feBlend mode="normal" in="SourceGraphic" in2="effect1_dropShadow" result="shape"/>
</filter>
<linearGradient id="paint0_linear" x1="16.9729" y1="55.957" x2="41.3944" y2="16.4278" gradientUnits="userSpaceOnUse">
<stop stop-color="white"/>
<stop offset="0.37" stop-color="#FDFDFD"/>
<stop offset="0.51" stop-color="#F6F6F6"/>
<stop offset="0.6" stop-color="#EBEBEB"/>
<stop offset="0.68" stop-color="#DADADA"/>
<stop offset="0.75" stop-color="#C4C4C4"/>
<stop offset="0.8" stop-color="#A8A8A8"/>
<stop offset="0.86" stop-color="#888888"/>
<stop offset="0.91" stop-color="#626262"/>
<stop offset="0.95" stop-color="#373737"/>
<stop offset="0.99" stop-color="#090909"/>
<stop offset="1"/>
</linearGradient>
</defs>
</svg>
