<svg width="40" height="50" viewBox="5 3 30 33" fill="none" xmlns="http://www.w3.org/2000/svg">
<path d="M34.1666 4.16675H5.83331L8.33331 32.5001L20 35.8334L31.6666 32.5001L34.1666 4.16675Z" fill="#E65100"/>
<path d="M20 6.66675V33.2501L29.3333 30.5834L31.4167 6.66675H20Z" fill="#FF6D00"/>
<path d="M20 20.8333V17.4999H27.1667L26.5833 27.0833L20 29.2499V25.7499L23.4167 24.5833L23.6667 20.8333H20ZM27.4167 14.1666L27.6667 10.8333H20V14.1666H27.4167Z" fill="white"/>
<path d="M20 25.7499V29.2499L13.4167 27.0833L13.0834 22.4999H16.4167L16.5834 24.5833L20 25.7499ZM15.9167 14.1666H20V10.8333H12.4167L13 20.8333H20V17.4999H16.1667L15.9167 14.1666Z" fill="#EEEEEE"/>
</svg>
