<svg width="50" height="50" viewBox="3 0 35 30" fill="none" xmlns="http://www.w3.org/2000/svg">
<path d="M5 3.33333C5 1.4925 6.4925 0 8.33333 0H31.6667C33.5075 0 35 1.4925 35 3.33333V26.6667C35 28.5075 33.5075 30 31.6667 30H8.33333C6.4925 30 5 28.5075 5 26.6667V3.33333Z" fill="#03A9F4"/>
<path d="M16.68 10.9783H15.0117V14.6733H16.6558C17.1117 14.6733 17.4642 14.5241 17.7142 14.2258C17.9642 13.9274 18.0883 13.4933 18.0883 12.9233C18.0883 12.3316 17.9608 11.8616 17.7058 11.5116C17.4508 11.1616 17.1083 10.9841 16.68 10.9783Z" fill="#020F16"/>
<path d="M7.5 2.5V27.5H32.5V2.5H7.5ZM19.4708 15.6575C18.7825 16.3308 17.8275 16.6667 16.6067 16.6667H15.0117V20.8333H12.6192V8.98417H16.6558C17.8275 8.98417 18.7625 9.34833 19.4592 10.075C20.1558 10.8017 20.505 11.7458 20.505 12.9067C20.505 14.0675 20.16 14.9842 19.4708 15.6575ZM27.235 20.28C26.6442 20.7575 25.8675 20.9958 24.9075 20.9958C24.2617 20.9958 23.6917 20.87 23.1983 20.6175C22.705 20.365 22.3175 20.0133 22.0383 19.5633C21.7592 19.1133 21.6192 18.6275 21.6192 18.1067H23.8083C23.82 18.5075 23.9125 18.8092 24.0892 19.01C24.2658 19.2108 24.5542 19.3108 24.9558 19.3108C25.5742 19.3108 25.8833 19.0317 25.8833 18.4725C25.8833 18.2775 25.79 18.0967 25.6025 17.9317C25.415 17.7667 25 17.5433 24.3542 17.2608C23.405 16.8758 22.7525 16.4775 22.3967 16.0642C22.0408 15.6508 21.8633 15.1392 21.8633 14.5258C21.8633 13.755 22.1417 13.1192 22.6975 12.6175C23.2533 12.1158 23.9908 11.865 24.9067 11.865C25.8717 11.865 26.645 12.115 27.2258 12.6133C27.8067 13.1117 28.0967 13.7825 28.0967 14.6233H25.7933C25.7933 13.9075 25.4958 13.5492 24.8983 13.5492C24.6542 13.5492 24.4542 13.625 24.2958 13.7767C24.1375 13.9283 24.06 14.1408 24.06 14.4117C24.06 14.6067 24.1467 14.7792 24.3208 14.9283C24.495 15.0775 24.9033 15.2908 25.55 15.5675C26.4892 15.915 27.1517 16.3017 27.54 16.7275C27.9283 17.1533 28.1217 17.7058 28.1217 18.3833C28.1217 19.1708 27.8258 19.8025 27.235 20.28Z" fill="#020F16"/>
</svg>
