<svg width="560" height="530" viewBox="0 0 560 530" fill="none" xmlns="http://www.w3.org/2000/svg">
<g filter="url(#filter0_ii)">
<path d="M95.924 514H96.724V515H58.8242V514H59.7242C61.1909 514 62.2909 513.567 63.0242 512.7C63.7576 511.767 64.1242 510.933 64.1242 510.2C64.1242 509.4 63.9576 508.567 63.6242 507.7L59.7242 498.4H38.3242L34.3242 507.7C33.9909 508.567 33.8242 509.267 33.8242 509.8C33.8242 510.333 33.9242 510.933 34.1242 511.6C34.3909 512.2 34.8909 512.767 35.6242 513.3C36.4242 513.767 37.2576 514 38.1242 514H39.0242V515H16.7242V514H17.6242C19.1576 514 20.6576 513.567 22.1242 512.7C23.6576 511.767 24.9242 510.4 25.9242 508.6L49.2242 457.5C52.7576 450.033 54.6576 445.067 54.9242 442.6H55.8242L87.5242 508.5C89.6576 512.167 92.4576 514 95.924 514ZM40.5242 493.4H57.6242L49.2242 473.4L40.5242 493.4ZM155.897 515H104.697V514H105.797C107.197 514 108.397 513.5 109.397 512.5C110.464 511.5 110.997 510.267 110.997 508.8V461.2C110.997 459.733 110.464 458.5 109.397 457.5C108.397 456.5 107.197 456 105.797 456H104.697V455H136.997V456H135.897C133.564 456 131.964 457.033 131.097 459.1C130.764 459.767 130.597 460.467 130.597 461.2V510.4H140.197C144.197 510.4 147.797 508.933 150.997 506C154.264 503.067 156.53 499.067 157.797 494H158.797L155.897 515ZM201.361 514H202.461V515H170.361V514H171.461C172.861 514 174.061 513.5 175.061 512.5C176.061 511.5 176.561 510.267 176.561 508.8V461.2C176.561 459.733 176.061 458.5 175.061 457.5C174.061 456.5 172.861 456 171.461 456H170.361V455H202.361V456H201.361C199.361 456 197.894 456.833 196.961 458.5C196.494 459.3 196.228 460.2 196.161 461.2V508.8C196.228 510.267 196.761 511.5 197.761 512.5C198.761 513.5 199.961 514 201.361 514ZM269.589 515V514H270.989C272.189 514 273.056 513.6 273.589 512.8C274.122 511.933 274.356 511.067 274.289 510.2L270.989 487.8L257.189 507.1C256.189 508.5 255.322 510.133 254.589 512C253.856 513.867 253.489 515.133 253.489 515.8C253.489 516.533 253.489 517 253.489 517.2H252.689L230.189 489.2L227.489 510.2C227.422 510.867 227.589 511.533 227.989 512.2C228.656 513.4 229.589 514 230.789 514H232.189V515H212.789V514H214.089C215.756 514 217.189 513.567 218.389 512.7C219.589 511.767 220.289 510.467 220.489 508.8L228.289 453.8H229.089L258.889 491.3L285.589 453.8H286.489L294.489 509.3C294.889 510.767 295.622 511.933 296.689 512.8C297.822 513.6 299.122 514 300.589 514H301.989V515H269.589ZM312.148 485C312.148 475.133 315.348 467.467 321.748 462C328.214 456.533 337.148 453.8 348.548 453.8C360.014 453.8 368.948 456.533 375.348 462C381.814 467.467 385.048 475.133 385.048 485C385.048 494.867 381.814 502.533 375.348 508C368.948 513.467 360.014 516.2 348.548 516.2C337.148 516.2 328.214 513.467 321.748 508C315.348 502.533 312.148 494.867 312.148 485ZM332.548 485C332.548 493.533 333.914 500.133 336.648 504.8C339.381 509.4 343.348 511.7 348.548 511.7C353.748 511.7 357.714 509.4 360.448 504.8C363.181 500.133 364.548 493.567 364.548 485.1C364.548 473.567 362.148 465.7 357.348 461.5C354.948 459.367 352.014 458.3 348.548 458.3C343.348 458.3 339.381 460.633 336.648 465.3C333.914 469.9 332.548 476.467 332.548 485ZM461.338 456H460.538C457.272 456 454.805 457.533 453.138 460.6L432.938 502.8C429.672 509.733 427.938 514.2 427.738 516.2H426.938L398.838 460.5C397.105 457.5 394.672 456 391.538 456H390.838V455H425.938V455.9H425.138C423.872 455.9 422.905 456.3 422.238 457.1C421.638 457.833 421.338 458.533 421.338 459.2C421.338 459.867 421.472 460.533 421.738 461.2L433.338 486.9L444.938 461.2C445.272 460.467 445.438 459.767 445.438 459.1C445.438 458.433 445.138 457.733 444.538 457C443.938 456.267 442.972 455.9 441.638 455.9H440.838V455H461.338V456ZM518.45 494.8C518.45 502.133 515.817 507.633 510.55 511.3C505.883 514.567 499.417 516.2 491.15 516.2C486.217 516.2 482.083 515.667 478.75 514.6C475.483 513.467 473.217 512.1 471.95 510.5C471.35 509.1 471.05 507.633 471.05 506.1C471.05 504.567 471.183 503.1 471.45 501.7C472.183 498.167 473.35 495.4 474.95 493.4H475.55C475.55 493.733 475.55 494.033 475.55 494.3C475.55 498.767 477.15 502.767 480.35 506.3C483.617 509.833 488.117 511.6 493.85 511.6C497.25 511.6 499.817 510.833 501.55 509.3C503.283 507.767 504.15 506 504.15 504C504.15 502 503.35 500.233 501.75 498.7C500.217 497.167 497.683 495.633 494.15 494.1L483.65 489.2C479.383 487.4 476.25 484.767 474.25 481.3C472.717 478.633 471.95 475.7 471.95 472.5C471.95 471.433 472.017 470.367 472.15 469.3C473.617 458.967 479.95 453.8 491.15 453.8C494.883 453.8 499.917 454.1 506.25 454.7H512.95L510.55 469.3H509.95C509.95 466.033 508.75 463.433 506.35 461.5C504.017 459.5 501.083 458.5 497.55 458.5C490.75 458.5 487.117 460.7 486.65 465.1C486.45 467.233 487.25 468.933 489.05 470.2C490.45 471.133 492.383 472.1 494.85 473.1L507.75 479C511.283 480.533 513.95 482.667 515.75 485.4C517.55 488.133 518.45 491.267 518.45 494.8Z" fill="#D7D7D7"/>
</g>
<g filter="url(#filter1_ii)">
<path d="M219.286 306.607L305.128 29.8904C305.486 28.7789 305.592 27.6035 305.439 26.4471C305.286 25.2906 304.878 24.1814 304.243 23.1975C303.608 22.2136 302.762 21.3791 301.765 20.7527C300.767 20.1263 299.642 19.7233 298.47 19.5722L248.772 13.006H238.785C237.088 12.9388 235.417 13.4333 234.038 14.4107C232.659 15.3881 231.652 16.7922 231.175 18.3997L108.238 362.419C107.797 363.674 107.682 365.018 107.902 366.328C108.121 367.638 108.669 368.874 109.496 369.922C110.323 370.97 111.402 371.798 112.636 372.331C113.87 372.863 115.219 373.084 116.561 372.972C142.717 370.392 203.116 359.136 219.286 306.607Z" fill="url(#paint0_linear)" fill-opacity="0.2"/>
</g>
<g filter="url(#filter2_ii)">
<path d="M446.398 372.988C447.426 373.052 448.453 372.861 449.387 372.434C450.321 372.006 451.132 371.355 451.746 370.541C452.359 369.726 452.757 368.773 452.903 367.768C453.048 366.763 452.936 365.738 452.578 364.787L324.467 20.8091C323.174 18.2401 321.115 16.1224 318.566 14.7403C316.017 13.3582 313.1 12.7776 310.206 13.0766H237C237 13.0766 248.171 13.0766 250.548 21.0434L339.204 306.442C339.204 306.442 357.505 369.005 446.398 372.988Z" fill="#E2E1E1"/>
</g>
<defs>
<filter id="filter0_ii" x="15.7242" y="442.6" width="503.726" height="75.6" filterUnits="userSpaceOnUse" color-interpolation-filters="sRGB">
<feFlood flood-opacity="0" result="BackgroundImageFix"/>
<feBlend mode="normal" in="SourceGraphic" in2="BackgroundImageFix" result="shape"/>
<feColorMatrix in="SourceAlpha" type="matrix" values="0 0 0 0 0 0 0 0 0 0 0 0 0 0 0 0 0 0 127 0" result="hardAlpha"/>
<feOffset dx="-1" dy="1"/>
<feGaussianBlur stdDeviation="2"/>
<feComposite in2="hardAlpha" operator="arithmetic" k2="-1" k3="1"/>
<feColorMatrix type="matrix" values="0 0 0 0 0 0 0 0 0 0 0 0 0 0 0 0 0 0 0.15 0"/>
<feBlend mode="normal" in2="shape" result="effect1_innerShadow"/>
<feColorMatrix in="SourceAlpha" type="matrix" values="0 0 0 0 0 0 0 0 0 0 0 0 0 0 0 0 0 0 127 0" result="hardAlpha"/>
<feOffset dx="1" dy="1"/>
<feGaussianBlur stdDeviation="1"/>
<feComposite in2="hardAlpha" operator="arithmetic" k2="-1" k3="1"/>
<feColorMatrix type="matrix" values="0 0 0 0 1 0 0 0 0 1 0 0 0 0 1 0 0 0 0.45 0"/>
<feBlend mode="normal" in2="effect1_innerShadow" result="effect2_innerShadow"/>
</filter>
<filter id="filter1_ii" x="104.793" y="11.9999" width="201.714" height="361" filterUnits="userSpaceOnUse" color-interpolation-filters="sRGB">
<feFlood flood-opacity="0" result="BackgroundImageFix"/>
<feBlend mode="normal" in="SourceGraphic" in2="BackgroundImageFix" result="shape"/>
<feColorMatrix in="SourceAlpha" type="matrix" values="0 0 0 0 0 0 0 0 0 0 0 0 0 0 0 0 0 0 127 0" result="hardAlpha"/>
<feOffset dx="-3" dy="-1"/>
<feGaussianBlur stdDeviation="2.5"/>
<feComposite in2="hardAlpha" operator="arithmetic" k2="-1" k3="1"/>
<feColorMatrix type="matrix" values="0 0 0 0 0 0 0 0 0 0 0 0 0 0 0 0 0 0 0.15 0"/>
<feBlend mode="normal" in2="shape" result="effect1_innerShadow"/>
<feColorMatrix in="SourceAlpha" type="matrix" values="0 0 0 0 0 0 0 0 0 0 0 0 0 0 0 0 0 0 127 0" result="hardAlpha"/>
<feOffset dx="1"/>
<feGaussianBlur stdDeviation="1"/>
<feComposite in2="hardAlpha" operator="arithmetic" k2="-1" k3="1"/>
<feColorMatrix type="matrix" values="0 0 0 0 1 0 0 0 0 1 0 0 0 0 1 0 0 0 0.45 0"/>
<feBlend mode="normal" in2="effect1_innerShadow" result="effect2_innerShadow"/>
</filter>
<filter id="filter2_ii" x="234" y="12" width="219.965" height="361" filterUnits="userSpaceOnUse" color-interpolation-filters="sRGB">
<feFlood flood-opacity="0" result="BackgroundImageFix"/>
<feBlend mode="normal" in="SourceGraphic" in2="BackgroundImageFix" result="shape"/>
<feColorMatrix in="SourceAlpha" type="matrix" values="0 0 0 0 0 0 0 0 0 0 0 0 0 0 0 0 0 0 127 0" result="hardAlpha"/>
<feOffset dx="-3" dy="-1"/>
<feGaussianBlur stdDeviation="2.5"/>
<feComposite in2="hardAlpha" operator="arithmetic" k2="-1" k3="1"/>
<feColorMatrix type="matrix" values="0 0 0 0 0 0 0 0 0 0 0 0 0 0 0 0 0 0 0.15 0"/>
<feBlend mode="normal" in2="shape" result="effect1_innerShadow"/>
<feColorMatrix in="SourceAlpha" type="matrix" values="0 0 0 0 0 0 0 0 0 0 0 0 0 0 0 0 0 0 127 0" result="hardAlpha"/>
<feOffset dx="1"/>
<feGaussianBlur stdDeviation="1"/>
<feComposite in2="hardAlpha" operator="arithmetic" k2="-1" k3="1"/>
<feColorMatrix type="matrix" values="0 0 0 0 1 0 0 0 0 1 0 0 0 0 1 0 0 0 0.45 0"/>
<feBlend mode="normal" in2="effect1_innerShadow" result="effect2_innerShadow"/>
</filter>
<linearGradient id="paint0_linear" x1="98.964" y1="364.06" x2="308.019" y2="24.6975" gradientUnits="userSpaceOnUse">
<stop stop-color="white"/>
<stop offset="0.37" stop-color="#FDFDFD"/>
<stop offset="0.51" stop-color="#F6F6F6"/>
<stop offset="0.6" stop-color="#EBEBEB"/>
<stop offset="0.68" stop-color="#DADADA"/>
<stop offset="0.75" stop-color="#C4C4C4"/>
<stop offset="0.8" stop-color="#A8A8A8"/>
<stop offset="0.86" stop-color="#888888"/>
<stop offset="0.91" stop-color="#626262"/>
<stop offset="0.95" stop-color="#373737"/>
<stop offset="0.99" stop-color="#090909"/>
<stop offset="1"/>
</linearGradient>
</defs>
</svg>
