<svg width="50" height="50" viewBox="5 3 30 35" fill="none" xmlns="http://www.w3.org/2000/svg">
<path d="M35 30.8333C35 33.135 33.135 35 30.8333 35H9.16667C6.86583 35 5 33.135 5 30.8333V9.16667C5 6.865 6.86583 5 9.16667 5H30.8333C33.135 5 35 6.865 35 9.16667V30.8333Z" fill="#673AB7"/>
<path d="M27.525 21.3333C26.9833 20.5833 26.2 20.0667 25.1917 19.7917C25.1917 19.7917 26.0417 19.4833 26.8083 18.3333C27.2667 17.6 27.5 16.7167 27.5 15.6833C27.5 13.8917 26.85 12.5167 25.55 11.575C24.25 10.6333 22.7833 10 20.2917 10H12.5V30H21.1917C23.55 29.9833 25.325 29.475 26.5333 28.5C27.7333 27.5083 28.3333 26.0417 28.3333 24.0833C28.3333 23 28.0667 22.0833 27.525 21.3333ZM17.5 13.3333C17.5 13.3333 20.975 13.3333 21.0417 13.3333C22.3083 13.3333 23.3333 14.3583 23.3333 15.625C23.3333 16.8917 22.3083 17.9167 21.0417 17.9167C20.975 17.9167 17.5 17.9167 17.5 17.9167V13.3333ZM21.6667 26.6667H17.5V21.6667H21.6667C23.05 21.6667 24.1667 22.7833 24.1667 24.1667C24.1667 25.55 23.05 26.6667 21.6667 26.6667Z" fill="white"/>
</svg>
