<svg width="40" height="50" viewBox="5 3 30 33" fill="none" xmlns="http://www.w3.org/2000/svg">
<path d="M34.1666 4.16675H5.83331L8.33331 32.5001L20 35.8334L31.6666 32.5001L34.1666 4.16675Z" fill="#0277BD"/>
<path d="M20 6.66675V33.2501L29.3333 30.5834L31.4167 6.66675H20Z" fill="#039BE5"/>
<path d="M27.5833 10.8333H20V14.1666H24.0833L23.8333 17.4999H20V20.8333H23.6667L23.4167 24.5833L20 25.7499V29.2499L26.5833 27.0833L27.1667 17.4999L27.5833 10.8333Z" fill="white"/>
<path d="M20 10.8333V14.1666H12.5833L12.3333 10.8333H20ZM16.1666 17.4999L16.3333 20.8333H20V17.4999H16.1666ZM16.5 22.4999H13.1666L13.4166 27.0833L20 29.2499V25.7499L16.5833 24.5833L16.5 22.4999Z" fill="#EEEEEE"/>
</svg>
