<svg width="50" height="50" viewBox="5 3 30 35" fill="none" xmlns="http://www.w3.org/2000/svg">
<path d="M5 35V5H35V35H5Z" fill="#FFD600"/>
<path d="M24.615 27.4558C25.1917 28.3924 25.8184 29.2899 27.1459 29.2899C28.2609 29.2899 28.8459 28.7358 28.8459 27.9691C28.8459 27.0516 28.2409 26.7258 27.0142 26.1916L26.3417 25.9049C24.4009 25.0816 23.11 24.0499 23.11 21.8708C23.11 19.8624 24.6475 18.3341 27.05 18.3341C28.7609 18.3341 29.99 18.9266 30.8767 20.4783L28.7817 21.8174C28.3209 20.9941 27.8225 20.6699 27.05 20.6699C26.2617 20.6699 25.7625 21.1674 25.7625 21.8174C25.7625 22.6208 26.2625 22.9458 27.4167 23.4433L28.0892 23.7299C30.3767 24.7041 31.6667 25.6991 31.6667 27.9358C31.6667 30.3458 29.7634 31.6666 27.2084 31.6666C24.7092 31.6666 23.29 30.4124 22.5 28.8599L24.615 27.4558ZM14.96 27.5241C15.3817 28.2791 16.0225 28.8599 16.9442 28.8599C17.8259 28.8599 18.3334 28.5116 18.3334 27.1574V18.3333H21.1109V27.5841C21.1109 30.3899 19.4834 31.6666 17.1067 31.6666C14.9592 31.6666 13.4092 30.2116 12.7775 28.8599L14.96 27.5241Z" fill="#000001"/>
</svg>
