<svg width="40" height="40" viewBox="0 0 40 40" fill="none" xmlns="http://www.w3.org/2000/svg">
<path d="M8.67438 6.38143C6.37688 9.683 6.66282 13.9789 8.41813 17.4877L8.54657 17.7371L8.62875 17.8952L8.68 17.9861L8.77157 18.1499C8.82594 18.2458 8.88188 18.3411 8.93907 18.4371L9.03469 18.5946C9.09813 18.6964 9.16282 18.7977 9.22907 18.8986L9.31188 19.0264C9.40344 19.163 9.49688 19.2989 9.59344 19.433L9.60157 19.4433L9.64907 19.5074C9.7325 19.6224 9.81844 19.7361 9.90563 19.8489L10.0022 19.9717C10.08 20.0696 10.1591 20.1664 10.2394 20.2636L10.33 20.3717C10.4378 20.4986 10.5481 20.6255 10.6603 20.7492L10.6669 20.7561L10.6797 20.7702C10.7894 20.8899 10.9016 21.0071 11.0156 21.1242L11.1231 21.2327C11.2113 21.3214 11.3009 21.4086 11.3913 21.4955L11.5009 21.5999C11.6219 21.7136 11.7438 21.8255 11.8684 21.9342L11.8741 21.9392L11.9381 21.9936C12.0478 22.0889 12.1594 22.1827 12.2719 22.2755L12.41 22.3858C12.5019 22.4592 12.5947 22.5321 12.6881 22.6033L12.8372 22.7161C12.9403 22.7921 13.0444 22.8667 13.1494 22.9402L13.2628 23.0208L13.2944 23.0433C13.3938 23.1121 13.4959 23.178 13.5975 23.2439L13.7288 23.3314C13.885 23.4299 14.0434 23.5277 14.2034 23.6221L14.3347 23.6961C14.4525 23.7639 14.5709 23.8308 14.6909 23.8958L14.8881 23.9977L15.1431 24.1302L15.2019 24.1586L15.3063 24.2089C15.4397 24.2727 15.5744 24.3355 15.7103 24.3961L15.7956 24.4342C15.9513 24.5024 16.1084 24.5677 16.2669 24.6305L16.3819 24.6755C16.5284 24.7324 16.6772 24.7877 16.8266 24.8402L16.8825 24.8596C17.0463 24.9171 17.2119 24.9699 17.3784 25.0221L17.4981 25.0577C17.6675 25.1089 17.8353 25.1696 18.01 25.2021C29.1203 27.228 32.3475 18.5258 32.3475 18.5258C29.6369 22.0571 24.8259 22.9883 20.2675 21.9514C20.0947 21.9124 19.9272 21.8583 19.7588 21.8089L19.6319 21.7702C19.4675 21.7199 19.3041 21.6671 19.1419 21.6108L19.0747 21.5867C18.9294 21.5355 18.7859 21.4817 18.6428 21.4264L18.5216 21.3789C18.365 21.3171 18.2091 21.2524 18.0553 21.1852L17.9622 21.1436C17.83 21.0839 17.6991 21.0236 17.5688 20.9608L17.455 20.9061C17.3528 20.8564 17.2519 20.8036 17.1506 20.7514L16.9478 20.6449C16.8244 20.5792 16.7034 20.5105 16.5831 20.4405L16.46 20.3721C16.2997 20.2774 16.1416 20.1799 15.985 20.0808L15.8569 19.9955C15.7434 19.9224 15.6303 19.8477 15.5191 19.7708L15.41 19.6942C15.3025 19.6186 15.1959 19.5414 15.0906 19.4636L14.9491 19.3564C14.8522 19.2824 14.7559 19.2077 14.6609 19.1311L14.5325 19.028C14.4113 18.9286 14.2916 18.828 14.1734 18.7252L14.1341 18.6924C14.0063 18.5802 13.8806 18.4649 13.7566 18.3492L13.6503 18.2467C13.5584 18.1596 13.4678 18.0714 13.3791 17.9808L13.2728 17.8746C13.1597 17.7589 13.0488 17.6417 12.94 17.5227L12.9234 17.5049C12.8084 17.3792 12.6959 17.2508 12.5859 17.1208L12.4975 17.0158C12.4153 16.9171 12.3341 16.8164 12.2547 16.7155L12.1656 16.6046C12.0697 16.4805 11.9766 16.3567 11.885 16.2311C9.35438 12.7789 8.445 8.01768 10.4678 4.10769L8.67438 6.38143ZM15.8056 3.59956C14.1444 5.99019 14.2344 9.19112 15.5306 11.7192C15.7478 12.143 15.9922 12.5546 16.2653 12.9458C16.5141 13.303 16.7903 13.7274 17.1206 14.0139C17.2403 14.1458 17.3656 14.2746 17.4934 14.4008L17.5916 14.498C17.7156 14.6183 17.8419 14.7367 17.9722 14.8517L17.9878 14.8652L17.9916 14.8689C18.1359 14.9955 18.285 15.1171 18.4363 15.2371L18.5372 15.3158C18.6891 15.4321 18.8438 15.5464 19.0025 15.6555L19.0159 15.6658L19.2284 15.8055L19.3291 15.8721C19.4425 15.9449 19.5572 16.0155 19.6741 16.0833L19.7228 16.1121C19.8234 16.1699 19.9253 16.2267 20.0275 16.2824L20.1359 16.3386L20.3491 16.4492L20.3813 16.4639C20.5278 16.5358 20.6753 16.6055 20.8263 16.6711L20.9244 16.7117C21.045 16.7627 21.1666 16.8127 21.2891 16.8596L21.4453 16.9171C21.5566 16.9583 21.6678 16.9961 21.7803 17.0336L21.9316 17.0821C22.0913 17.1314 22.2494 17.1942 22.4156 17.2221C30.9938 18.643 32.9741 12.0383 32.9741 12.0383C31.1891 14.6096 27.7319 15.8361 24.0428 14.8786C23.8791 14.8355 23.7172 14.7886 23.5569 14.7383L23.4109 14.6911C23.2969 14.6546 23.1834 14.6152 23.0713 14.5742L22.9178 14.5171C22.7947 14.4696 22.6728 14.4205 22.5519 14.3692L22.4534 14.3277C22.3019 14.2617 22.1528 14.1921 22.0059 14.1196L21.7816 14.0055L21.6522 13.9389C21.5566 13.8871 21.4616 13.8333 21.3681 13.7783L21.3003 13.7399C21.1841 13.6721 21.0697 13.6024 20.9566 13.5299L20.8528 13.4608L20.6303 13.3133C20.4722 13.2042 20.3181 13.0902 20.1666 12.9742L20.0622 12.8917C18.4475 11.6171 17.1675 9.87456 16.5591 7.89893C15.9213 5.84987 16.0588 3.54987 17.1638 1.683L15.8056 3.59956ZM21.8034 1.52112C20.8241 2.96237 20.7278 4.75268 21.4075 6.34456C22.1241 8.03425 23.5925 9.35956 25.3066 9.98831L25.5197 10.0617L25.6134 10.0917C25.7144 10.1236 25.8147 10.1605 25.9191 10.1799C30.6556 11.0952 31.9403 7.74956 32.2822 7.25675C31.1569 8.87706 29.2656 9.26612 26.945 8.70268C26.7619 8.65831 26.5603 8.59206 26.3838 8.52925C26.1572 8.44831 25.9341 8.35643 25.7169 8.25237C25.305 8.05425 24.9122 7.81425 24.5478 7.53925C22.4713 5.96362 21.1816 2.95831 22.5366 0.510498" fill="#0868AC"/>
<path d="M20.7372 30.0922H19.4166C19.3435 30.0922 19.2707 30.1509 19.255 30.2225L18.7863 32.3913L18.3175 34.56C18.3022 34.6316 18.2294 34.6903 18.1563 34.6903H17.2216C16.2969 34.6903 16.4038 34.0506 16.5932 33.1744L16.5988 33.1478L16.6194 33.0372L16.6232 33.0166L16.6654 32.7916L16.7107 32.5506L16.7588 32.3053L16.9719 31.2641L17.1854 30.2228C17.2 30.1509 17.1519 30.0919 17.0788 30.0919H15.7235C15.6504 30.0919 15.5779 30.1506 15.5629 30.2225L15.2713 31.605L14.98 32.9878L14.9794 32.9897L14.9525 33.1184C14.6169 34.6506 14.7057 36.1122 16.53 36.1581L16.5832 36.1591H19.4466C19.5197 36.1591 19.5925 36.1003 19.6079 36.0288L20.2254 33.1259L20.8429 30.2228C20.8582 30.1509 20.8107 30.0925 20.7372 30.0922ZM6.59473 30.0769H5.14473C5.07129 30.0769 4.99816 30.1356 4.98191 30.2069L4.84441 30.8138L4.70691 31.4206C4.69098 31.4922 4.73754 31.5506 4.81098 31.5506H6.27223C6.34566 31.5506 6.41848 31.4919 6.4341 31.4203L6.56691 30.8138L6.69973 30.2072C6.71504 30.1356 6.66816 30.0769 6.59473 30.0769ZM6.1741 31.9656H4.71254C4.63941 31.9656 4.56598 32.0244 4.54973 32.0956L4.34441 33.005L4.13941 33.9141L4.08223 34.1747L3.88504 35.1028L3.68816 36.0313C3.67285 36.1028 3.64129 36.2184 3.61785 36.2878C3.61785 36.2878 3.34473 37.1003 2.88566 37.0909L2.82816 37.0897L2.43098 37.0825H2.43066C2.35754 37.0816 2.2841 37.1388 2.26691 37.2097L2.11535 37.8469L1.9641 38.4838C1.94691 38.555 1.99316 38.6138 2.06598 38.615C2.32629 38.6181 2.90941 38.6247 3.26223 38.6247C4.40879 38.6247 5.01348 37.9894 5.40066 36.1613L5.8541 34.0631L6.27941 32.0953C6.29473 32.0244 6.24723 31.9656 6.1741 31.9656ZM33.0857 31.4738L33.025 31.2234L32.9654 30.9672L32.935 30.8378C32.8163 30.3763 32.4679 30.1103 31.711 30.1103L30.5329 30.1091L29.4479 30.1075H28.2269C28.1538 30.1075 28.0813 30.1663 28.066 30.2378L28.0119 30.4928L27.9482 30.7941L27.9304 30.8788L27.3807 33.4538L26.8588 35.8981C26.8432 35.97 26.8382 36.0581 26.8469 36.0938C26.8557 36.1297 26.9966 36.1591 27.0697 36.1591H28.171C28.2444 36.1591 28.3372 36.1459 28.3772 36.1297C28.4172 36.1134 28.4763 35.9694 28.491 35.8978L28.6866 34.9294L28.8825 33.9606L28.8829 33.9591L28.9091 33.83L29.1466 32.7175L29.3563 31.735C29.3719 31.6634 29.4441 31.605 29.5172 31.6047L32.9825 31.6031C33.056 31.6038 33.1022 31.5453 33.0857 31.4738ZM37.5466 29.2113L37.2797 29.2122H36.1707C36.0972 29.2122 36.0032 29.2619 35.9622 29.3225L33.5094 32.9156C33.4682 32.9763 33.421 32.9675 33.4047 32.8963L33.2241 32.1047C33.2079 32.0331 33.1344 31.9747 33.061 31.9747H31.4844C31.411 31.9747 31.3675 32.0322 31.3875 32.1025L32.0941 34.5778C32.1141 34.6484 32.1157 34.7641 32.0975 34.8353L31.7897 36.0331C31.7713 36.1044 31.8163 36.1622 31.8897 36.1622H33.4482C33.5213 36.1622 33.5963 36.1041 33.6144 36.0331L33.9225 34.8353C33.9407 34.7638 33.9916 34.6581 34.036 34.5994L38.0179 29.3147C38.0622 29.2559 38.0382 29.2081 37.965 29.2088L37.5466 29.2113ZM25.0197 32.3109V32.3097C25.0107 32.3891 24.9372 32.4475 24.8638 32.4475H22.8647C22.7954 32.4475 22.7604 32.4006 22.7707 32.3425L22.7725 32.3378L22.7713 32.3384L22.7722 32.3319L22.7813 32.2978C22.9722 31.7903 23.361 31.4572 24.0919 31.4572C24.915 31.4569 25.0757 31.8588 25.0197 32.3109ZM24.4332 30.0034C21.8672 30.0034 21.2591 31.5609 20.9179 33.1331C20.5769 34.7356 20.606 36.2334 23.2616 36.2334H23.5835L23.6635 36.2331H23.6822L24.001 36.2322H24.0066C24.7079 36.2294 25.4113 36.2241 25.696 36.2219C25.7688 36.2206 25.84 36.1622 25.855 36.0906L25.9625 35.5653L25.9835 35.4631L26.1116 34.8363C26.1263 34.7647 26.0785 34.7056 26.005 34.7056H23.6179C22.6682 34.7056 22.3863 34.4534 22.4904 33.7116H26.3063L26.306 33.7119L26.3085 33.7116C26.3691 33.7106 26.4254 33.6688 26.4475 33.6131L26.4566 33.58L26.4563 33.5803C27.0229 31.4431 26.8604 30.0038 24.4332 30.0034ZM12.305 32.3028L12.2688 32.4306V32.4309L11.9807 33.4522L11.6925 34.4731C11.6729 34.5441 11.5963 34.6016 11.5229 34.6016H9.99785C8.84098 34.6016 8.5591 33.6966 8.84098 32.3622C9.12254 30.9972 9.67473 30.1488 10.8135 30.0628C12.3697 29.9453 12.681 31.0397 12.305 32.3028ZM13.3513 34.5231C13.3513 34.5231 14.0704 32.7769 14.2335 31.7688C14.4563 30.4191 13.7804 28.4609 11.1697 28.4609C8.5741 28.4609 7.4466 30.33 7.0166 32.3622C6.5866 34.4091 7.15004 36.2038 9.73098 36.1891L11.7672 36.1816L13.67 36.1747C13.7432 36.1741 13.8182 36.1159 13.8369 36.0453L14.1685 34.7809C14.1869 34.7097 14.1422 34.6516 14.0688 34.6509L13.751 34.6491L13.4332 34.6472C13.371 34.6469 13.3354 34.6063 13.3429 34.5528L13.3513 34.5231ZM26.2013 33.3541C26.2013 33.4025 26.1622 33.4419 26.1138 33.4419C26.0657 33.4419 26.0263 33.4025 26.0263 33.3541C26.0263 33.3059 26.0654 33.2669 26.1138 33.2669C26.1622 33.2669 26.2013 33.3059 26.2013 33.3541Z" fill="white"/>
</svg>
